<svg xmlns="http://www.w3.org/2000/svg" style="display:none">
  <symbol id="icon-implant" viewBox="0 0 48 48">
    <g fill="none" stroke="#C62828" stroke-width="2" stroke-linecap="round" stroke-linejoin="round">
      <path d="M16 10h16c1.7 0 3 1.3 3 3v4c0 5-4 9-9 9h-4c-5 0-9-4-9-9v-4c0-1.7 1.3-3 3-3z" fill="#FFFFFF"/>
      <path d="M20 26l-2 6 4 8"/>
      <path d="M28 26l2 6-4 8"/>
      <path d="M22 28h4"/>
      <path d="M21 32h6"/>
      <path d="M22 36h4"/>
    </g>
  </symbol>

  <symbol id="icon-rct" viewBox="0 0 48 48">
    <g fill="none" stroke="#C62828" stroke-width="2" stroke-linecap="round" stroke-linejoin="round">
      <path d="M16 6h16c2.2 0 4 1.8 4 4v8c0 6.6-5.4 12-12 12S12 24.6 12 18v-8c0-2.2 1.8-4 4-4z" fill="#FFFFFF"/>
      <path d="M17 18c2 0 3-2 4-4s2-4 4-4 3 2 4 4 2 4 4 4"/>
      <path d="M18 30v6"/>
      <path d="M30 30v6"/>
    </g>
  </symbol>

  <symbol id="icon-whitening" viewBox="0 0 48 48">
    <g fill="none" stroke="#C62828" stroke-width="2" stroke-linecap="round" stroke-linejoin="round">
      <circle cx="24" cy="24" r="10" fill="#FFFFFF"/>
      <path d="M24 13v-4"/>
      <path d="M24 39v-4"/>
      <path d="M13 24h-4"/>
      <path d="M39 24h-4"/>
      <path d="M18 18l-2-2"/>
      <path d="M32 18l2-2"/>
      <path d="M18 30l-2 2"/>
      <path d="M32 30l2 2"/>
      <path d="M20 24h8" />
    </g>
  </symbol>

  <symbol id="icon-aligner" viewBox="0 0 48 48">
    <g fill="none" stroke="#C62828" stroke-width="2" stroke-linecap="round" stroke-linejoin="round">
      <rect x="10" y="16" width="28" height="10" rx="5" ry="5" fill="#FFFFFF"/>
      <path d="M14 21h4"/>
      <path d="M20 21h4"/>
      <path d="M26 21h4"/>
      <path d="M32 21h4"/>
      <path d="M14 28c2 2 4 3 10 3s8-1 10-3" opacity="0.8"/>
    </g>
  </symbol>

  <symbol id="icon-braces" viewBox="0 0 48 48">
    <g fill="none" stroke="#C62828" stroke-width="2" stroke-linecap="round" stroke-linejoin="round">
      <path d="M10 20h28" />
      <path d="M10 28h28" />
      <rect x="12" y="18" width="6" height="6" rx="1" fill="#FFFFFF"/>
      <rect x="21" y="18" width="6" height="6" rx="1" fill="#FFFFFF"/>
      <rect x="30" y="18" width="6" height="6" rx="1" fill="#FFFFFF"/>
      <rect x="12" y="26" width="6" height="6" rx="1" fill="#FFFFFF"/>
      <rect x="21" y="26" width="6" height="6" rx="1" fill="#FFFFFF"/>
      <rect x="30" y="26" width="6" height="6" rx="1" fill="#FFFFFF"/>
    </g>
  </symbol>

  <symbol id="icon-denture" viewBox="0 0 48 48">
    <g fill="none" stroke="#C62828" stroke-width="2" stroke-linecap="round" stroke-linejoin="round">
      <path d="M10 16h28v6c0 3.3-2.7 6-6 6H16c-3.3 0-6-2.7-6-6v-6z" fill="#FFFFFF"/>
      <path d="M12 16v-2c0-2.2 1.8-4 4-4h16c2.2 0 4 1.8 4 4v2"/>
      <path d="M14 22h2"/>
      <path d="M18 22h2"/>
      <path d="M22 22h2"/>
      <path d="M26 22h2"/>
      <path d="M30 22h2"/>
      <path d="M16 30c2 2 4 3 8 3s6-1 8-3" opacity="0.8"/>
    </g>
  </symbol>

  <symbol id="icon-scaling" viewBox="0 0 48 48">
    <g fill="none" stroke="#C62828" stroke-width="2" stroke-linecap="round" stroke-linejoin="round">
      <path d="M16 10h16c1.7 0 3 1.3 3 3v6c0 5.5-4.5 10-10 10s-10-4.5-10-10v-6c0-1.7 1.3-3 3-3z" fill="#FFFFFF"/>
      <path d="M14 30l6 6" />
      <path d="M34 18c-2 4-6.5 7-10 7-3.5 0-7.5-2.5-10-7" />
      <path d="M28 32l4 4" />
    </g>
  </symbol>

  <symbol id="icon-zirconia" viewBox="0 0 48 48">
    <g fill="none" stroke="#C62828" stroke-width="2" stroke-linecap="round" stroke-linejoin="round">
      <polygon points="16,10 32,10 38,20 24,38 10,20" fill="#FFFFFF"/>
      <path d="M16 10l8 10 8-10"/>
      <path d="M10 20h28"/>
      <path d="M20 20l4 18"/>
      <path d="M28 20l-4 18"/>
      <path d="M18 8l2-4"/>
      <path d="M24 8V2"/>
      <path d="M30 8l-2-4"/>
    </g>
  </symbol>

  <symbol id="icon-star" viewBox="0 0 20 20">
    <path d="M10 1.5l2.3 4.7 5.2.8-3.8 3.7.9 5.2L10 13.8 5.4 16l.9-5.2-3.8-3.7 5.2-.8z" fill="#FFC107"/>
  </symbol>

  <symbol id="icon-phone" viewBox="0 0 24 24">
    <path d="M6.6 3.1L8.8 2c.7-.4 1.6-.1 2 .6l1.6 3c.4.7.2 1.6-.4 2.1l-1.2 1c.3 1.2 1 2.5 2 3.5 1 .9 2.2 1.6 3.4 1.9l1-1.2c.5-.6 1.4-.8 2.1-.4l3 1.6c.7.4 1 1.3.6 2l-1.1 2.2c-.4.8-1.3 1.2-2.2 1.1-3.6-.4-7-2.1-9.7-4.8-2.7-2.7-4.4-6.1-4.8-9.7-.1-.9.3-1.7 1.1-2.2z" fill="#C62828"/>
  </symbol>

  <symbol id="icon-location" viewBox="0 0 24 24">
    <g fill="none" stroke="#C62828" stroke-width="1.8" stroke-linecap="round" stroke-linejoin="round">
      <path d="M12 3c-3.3 0-6 2.7-6 6 0 4.5 6 12 6 12s6-7.5 6-12c0-3.3-2.7-6-6-6z"/>
      <circle cx="12" cy="9" r="2.5"/>
    </g>
  </symbol>

  <symbol id="icon-menu" viewBox="0 0 24 24">
    <path d="M4 7h16M4 12h16M4 17h16" stroke="#111" stroke-width="2" stroke-linecap="round"/>
  </symbol>

  <symbol id="icon-close" viewBox="0 0 24 24">
    <path d="M6 6l12 12M18 6L6 18" stroke="#111" stroke-width="2" stroke-linecap="round"/>
  </symbol>

  <symbol id="icon-arrow-down" viewBox="0 0 24 24">
    <path d="M12 5v14M6 13l6 6 6-6" stroke="#FFFFFF" stroke-width="2" stroke-linecap="round" stroke-linejoin="round"/>
  </symbol>

  <symbol id="icon-arrow-up" viewBox="0 0 24 24">
    <path d="M12 19V5M6 11l6-6 6 6" stroke="#FFFFFF" stroke-width="2" stroke-linecap="round" stroke-linejoin="round"/>
  </symbol>
</svg>
