<svg width="180" height="40" viewBox="0 0 180 40" xmlns="http://www.w3.org/2000/svg" role="img" aria-labelledby="title desc">
  <title id="title">Sukh Hridaya Charitable Dental Hospital</title>
  <desc id="desc">Minimal dental logo with tooth icon and clinic name</desc>
  <defs>
    <linearGradient id="toothGradient" x1="0" y1="0" x2="1" y2="1">
      <stop offset="0" stop-color="#C62828"/>
      <stop offset="1" stop-color="#B71C1C"/>
    </linearGradient>
  </defs>
  <g transform="translate(4 4)">
    <path d="M16 0c-4.2 0-7.6 3.4-7.6 7.6 0 1.6.5 3.1 1.4 4.4.4.6.5 1.4.3 2.1L9 18.5c-.3 1.2.4 2.4 1.6 2.7.9.2 1.8-.2 2.3-1l1.6-2.7c.5-.8 1.7-.8 2.2 0l1.6 2.7c.6 1 1.9 1.3 2.9.7.7-.4 1.1-1.3.9-2.1l-1.1-4.5c-.2-.7 0-1.5.3-2.1.9-1.3 1.4-2.8 1.4-4.4C23.6 3.4 20.2 0 16 0z" fill="url(#toothGradient)"/>
    <circle cx="27" cy="5" r="2" fill="#C62828" opacity="0.7"/>
    <circle cx="30.5" cy="9" r="1.6" fill="#C62828" opacity="0.4"/>
    <circle cx="33" cy="13" r="1.2" fill="#C62828" opacity="0.25"/>
  </g>
  <text x="52" y="16" font-family="system-ui, -apple-system, BlinkMacSystemFont, 'Segoe UI', sans-serif" font-size="10" font-weight="700" fill="#B71C1C">
    SUKH HRIDAYA
  </text>
  <text x="52" y="28" font-family="system-ui, -apple-system, BlinkMacSystemFont, 'Segoe UI', sans-serif" font-size="8" font-weight="500" fill="#555">
    CHARITABLE DENTAL HOSPITAL
  </text>
</svg>
