<svg width="240" height="240" viewBox="0 0 240 240" xmlns="http://www.w3.org/2000/svg" aria-hidden="true">
  <defs>
    <linearGradient id="patternToothGradient" x1="0" y1="0" x2="1" y2="1">
      <stop offset="0" stop-color="#FBE9E9"/>
      <stop offset="1" stop-color="#F1F1F1"/>
    </linearGradient>
    <pattern id="toothPattern" x="0" y="0" width="60" height="60" patternUnits="userSpaceOnUse">
      <g opacity="0.6">
        <path d="M20 4c-3 0-5.5 2.5-5.5 5.5 0 1.1.3 2.2 1 3.1.3.4.4 1 .2 1.5l-.8 3c-.3.9.3 1.8 1.2 2.1.6.2 1.3-.1 1.6-.7l1.1-1.9c.3-.6 1.2-.6 1.5 0l1.1 1.9c.4.7 1.3 1 2 .6.5-.3.8-.9.7-1.5l-.7-3c-.1-.5 0-1 .3-1.5.6-.9 1-2 1-3.1C25.5 6.5 23 4 20 4z" fill="url(#patternToothGradient)"/>
      </g>
    </pattern>
  </defs>
  <rect width="240" height="240" fill="url(#toothPattern)"/>
</svg>
